<?xml version="1.0" encoding="utf-8"?>
<!-- Generator: Adobe Illustrator 23.0.3, SVG Export Plug-In . SVG Version: 6.00 Build 0)  -->
<svg version="1.1" id="Capa_1" xmlns="http://www.w3.org/2000/svg" xmlns:xlink="http://www.w3.org/1999/xlink" x="0px" y="0px"
	 viewBox="0 0 20.8 20.8" style="enable-background:new 0 0 20.8 20.8;" xml:space="preserve">
<style type="text/css">
	.st0{fill:#16B8BD;}
</style>
<g>
	<path class="st0" d="M20.7,6.5c0,0.1,0,0.1,0,0.2l-1,5.9c0,0.2-0.2,0.4-0.3,0.6c-0.2,0.1-0.4,0.2-0.6,0.2c0,0,0,0,0,0h0
		c0,0,0,0,0,0c0,0,0,0,0,0L8.4,13.3c-0.1,0-0.2,0-0.2,0c0,0.1-0.1,0.2-0.1,0.4c-0.1,0.3-0.4,0.5-0.7,0.6C7.2,14.3,7,14.5,7,14.8
		c0,0.1,0,0.2,0.2,0.3c0.1,0.1,0.3,0.2,0.7,0.2c1.6,0,10.6,0,10.6,0c0.2,0,0.4,0.2,0.4,0.4c0,0.2-0.2,0.4-0.4,0.4c0,0,0,0-0.1,0
		c0,0,0,0,0,0c0,0-0.1,0-0.4,0l-0.6,0c0.6,0.2,1,0.7,1,1.4c0,0.8-0.6,1.4-1.4,1.4c-0.8,0-1.4-0.6-1.4-1.4c0-0.6,0.4-1.2,1-1.4h-0.6
		c-0.6,0-1.4,0-2.1,0c-1.1,0-2.2,0-3.1,0l-0.7,0c0.6,0.2,1,0.7,1,1.4c0,0.8-0.6,1.4-1.4,1.4c-0.8,0-1.4-0.6-1.4-1.4
		c0-0.6,0.4-1.2,1-1.4l-0.7,0c-0.2,0-0.4,0-0.6,0c-0.5,0-0.9-0.1-1.2-0.4c-0.3-0.2-0.4-0.6-0.4-0.9c0-0.5,0.3-1,0.8-1.3
		c0.2-0.1,0.2-0.2,0.3-0.3c0.1-0.1,0.1-0.2,0.1-0.4c0-0.1,0-0.2,0-0.2c0-0.1-0.2-0.5-0.4-1.2c-0.3-0.7-0.6-1.7-1-2.7
		c-0.7-2-1.5-4.1-1.6-4.5C4.2,4,4,3.8,3.9,3.7C3.8,3.6,3.6,3.5,3.6,3.5L1.5,3C1.4,3.1,1.2,3.1,1,3.1c-0.6,0-1-0.3-1-0.6
		c0-0.3,0.5-0.6,1-0.6c0.5,0,0.9,0.2,1,0.4l1.9,0.5l0,0c0,0,0.2,0.1,0.5,0.3c0.3,0.2,0.6,0.5,0.7,1c0,0,0,0.1,0.1,0.2l0.2,0.5
		L8,12.5c0,0,8.2,0.1,10.6,0.2c0.1,0,0.4-0.3,0.4-0.4c0.3-1.5,0.8-4.5,1.1-6.1c0.1-0.4,0.4-0.6,0.6-0.2C20.8,6.1,20.7,6.4,20.7,6.5z
		"/>
</g>
</svg>
